<?xml version="1.0" standalone="no"?>
<!DOCTYPE svg PUBLIC "-//W3C//DTD SVG 20010904//EN"
 "http://www.w3.org/TR/2001/REC-SVG-20010904/DTD/svg10.dtd">
<svg version="1.0" xmlns="http://www.w3.org/2000/svg"
 width="500.000000pt" height="500.000000pt" viewBox="0 0 500.000000 500.000000"
 preserveAspectRatio="xMidYMid meet">
<metadata>
Created by potrace 1.11, written by Peter Selinger 2001-2013
</metadata>
<g transform="translate(0.000000,500.000000) scale(0.100000,-0.100000)"
fill="#000000" stroke="none">
<path d="M1259 3496 c-2 -2 -35 -7 -74 -10 -190 -17 -462 -102 -612 -191 -251
-150 -415 -350 -492 -600 -100 -324 77 -716 428 -952 190 -127 408 -201 676
-230 156 -17 466 -8 590 16 343 68 666 210 955 421 30 22 66 48 80 57 14 10
27 20 30 23 3 3 48 42 100 86 52 45 130 118 173 163 l78 82 132 -56 c254 -108
461 -170 642 -191 28 -3 68 -9 90 -13 48 -9 312 -7 370 3 113 18 182 39 281
86 157 75 237 180 238 309 1 113 -57 203 -180 281 -133 84 -327 127 -557 125
-144 -2 -162 -4 -376 -40 -19 -3 -37 -8 -41 -10 -3 -2 -19 -6 -34 -9 -99 -18
-334 -102 -487 -175 -74 -35 -85 -37 -96 -17 -19 33 -159 170 -263 257 -194
162 -448 324 -620 397 -151 64 -297 115 -390 137 -161 37 -250 47 -436 51
-110 2 -203 2 -205 0z m456 -380 c449 -75 837 -249 1202 -539 l82 -65 -37 -34
c-254 -229 -647 -442 -972 -528 -167 -44 -297 -61 -465 -61 -88 0 -178 2 -200
5 -434 52 -698 205 -825 479 -48 103 -44 181 14 298 34 68 64 107 133 175 145
143 355 233 623 267 106 13 372 15 445 3z m2731 -449 c189 -42 284 -100 284
-173 0 -53 -105 -119 -237 -150 -98 -23 -115 -25 -248 -28 -231 -6 -464 40
-739 147 l-89 35 39 20 c107 54 375 131 543 155 124 17 355 14 447 -6z"/>
</g>
</svg>
