<?xml version="1.0" standalone="no"?>
<!DOCTYPE svg PUBLIC "-//W3C//DTD SVG 20010904//EN"
 "http://www.w3.org/TR/2001/REC-SVG-20010904/DTD/svg10.dtd">
<svg version="1.0" xmlns="http://www.w3.org/2000/svg"
 width="512.000000pt" height="512.000000pt" viewBox="0 0 512.000000 512.000000"
 preserveAspectRatio="xMidYMid meet">
<metadata>
Created by potrace 1.11, written by Peter Selinger 2001-2013
</metadata>
<g transform="translate(0.000000,512.000000) scale(0.100000,-0.100000)"
fill="#000000" stroke="none">
<path d="M1257 4626 c-64 -23 -96 -56 -265 -266 -64 -80 -122 -152 -129 -160
-7 -8 -108 -134 -224 -280 -116 -146 -221 -276 -233 -290 -11 -14 -33 -41 -47
-60 -15 -19 -41 -51 -58 -70 -83 -91 -220 -260 -248 -305 -63 -101 -67 -178
-13 -280 23 -44 77 -122 100 -145 3 -3 30 -34 60 -70 30 -36 66 -78 80 -94 14
-16 428 -432 920 -926 492 -493 945 -949 1005 -1012 63 -66 128 -125 153 -137
122 -62 266 -66 381 -11 52 26 86 54 166 138 55 58 505 511 1000 1007 907 910
959 963 1087 1122 91 114 122 179 122 258 1 94 -45 170 -228 378 -47 54 -157
187 -243 295 -86 108 -162 202 -168 209 -5 6 -29 35 -52 65 -428 538 -474 592
-534 625 -32 17 -94 18 -1314 20 -1067 2 -1286 0 -1318 -11z"/>
</g>
</svg>
